{
  "accessors": [
    {
      "bufferView": 2,
      "componentType": 5126,
      "count": 38821,
      "max": [
        0.427735835313797,
        0.9999998807907104,
        0.05286162346601486
      ],
      "min": [
        -0.42865949869155884,
        -0.9999983310699463,
        -0.052861835807561874
      ],
      "type": "VEC3"
    },
    {
      "bufferView": 2,
      "byteOffset": 465852,
      "componentType": 5126,
      "count": 38821,
      "max": [
        1.0,
        1.0,
        1.0
      ],
      "min": [
        -1.0,
        -1.0,
        -1.0
      ],
      "type": "VEC3"
    },
    {
      "bufferView": 1,
      "componentType": 5126,
      "count": 38821,
      "max": [
        0.9979189038276672,
        0.9922028183937073
      ],
      "min": [
        0.006456767208874226,
        0.0035088062286376953
      ],
      "type": "VEC2"
    },
    {
      "bufferView": 1,
      "byteOffset": 310568,
      "componentType": 5126,
      "count": 38821,
      "max": [
        0.9979189038276672,
        0.9922028183937073
      ],
      "min": [
        0.006456767208874226,
        0.0035088062286376953
      ],
      "type": "VEC2"
    },
    {
      "bufferView": 1,
      "byteOffset": 621136,
      "componentType": 5126,
      "count": 38821,
      "max": [
        0.9979189038276672,
        0.9922028183937073
      ],
      "min": [
        0.006456767208874226,
        0.0035088062286376953
      ],
      "type": "VEC2"
    },
    {
      "bufferView": 1,
      "byteOffset": 931704,
      "componentType": 5126,
      "count": 38821,
      "max": [
        0.9979189038276672,
        0.9922028183937073
      ],
      "min": [
        0.006456767208874226,
        0.0035088062286376953
      ],
      "type": "VEC2"
    },
    {
      "bufferView": 0,
      "componentType": 5125,
      "count": 204420,
      "type": "SCALAR"
    }
  ],
  "asset": {
    "extras": {
      "author": "benben.miao (https://sketchfab.com/benben.miao)",
      "license": "CC-BY-4.0 (http://creativecommons.org/licenses/by/4.0/)",
      "source": "https://sketchfab.com/3d-models/chinese-knot-66ffd5ff4d2d4d3a95636f106cc95a83",
      "title": "Chinese Knot"
    },
    "generator": "Sketchfab-12.68.0",
    "version": "2.0"
  },
  "bufferViews": [
    {
      "buffer": 0,
      "byteLength": 817680,
      "name": "floatBufferViews",
      "target": 34963
    },
    {
      "buffer": 0,
      "byteLength": 1242272,
      "byteOffset": 817680,
      "byteStride": 8,
      "name": "floatBufferViews",
      "target": 34962
    },
    {
      "buffer": 0,
      "byteLength": 931704,
      "byteOffset": 2059952,
      "byteStride": 12,
      "name": "floatBufferViews",
      "target": 34962
    }
  ],
  "buffers": [
    {
      "byteLength": 2991656,
      "uri": "scene.bin"
    }
  ],
  "extensionsUsed": [
    "KHR_materials_unlit"
  ],
  "images": [
    {
      "uri": "textures/ChineseKnotting_baseColor.png"
    }
  ],
  "materials": [
    {
      "doubleSided": true,
      "extensions": {
        "KHR_materials_unlit": {}
      },
      "name": "ChineseKnotting",
      "pbrMetallicRoughness": {
        "baseColorTexture": {
          "index": 0
        },
        "metallicFactor": 0.0
      }
    }
  ],
  "meshes": [
    {
      "name": "Object_0",
      "primitives": [
        {
          "attributes": {
            "NORMAL": 1,
            "POSITION": 0,
            "TEXCOORD_0": 2,
            "TEXCOORD_1": 3,
            "TEXCOORD_2": 4,
            "TEXCOORD_3": 5
          },
          "indices": 6,
          "material": 0,
          "mode": 4
        }
      ]
    }
  ],
  "nodes": [
    {
      "children": [
        1
      ],
      "matrix": [
        1.0,
        0.0,
        0.0,
        0.0,
        0.0,
        2.220446049250313e-16,
        -1.0,
        0.0,
        0.0,
        1.0,
        2.220446049250313e-16,
        0.0,
        0.0,
        -4.622231866529366e-33,
        2.0816681711721685e-17,
        1.0
      ],
      "name": "Sketchfab_model"
    },
    {
      "children": [
        2
      ],
      "name": "root"
    },
    {
      "children": [
        3
      ],
      "matrix": [
        1.0,
        0.0,
        0.0,
        0.0,
        0.0,
        2.220446049250313e-16,
        1.0,
        0.0,
        0.0,
        -1.0,
        2.220446049250313e-16,
        0.0,
        0.0,
        0.0,
        0.0,
        1.0
      ],
      "name": "GLTF_SceneRootNode"
    },
    {
      "children": [
        4
      ],
      "name": "ChineseKnotting_2"
    },
    {
      "mesh": 0,
      "name": "Object_4"
    }
  ],
  "samplers": [
    {
      "magFilter": 9729,
      "minFilter": 9987,
      "wrapS": 10497,
      "wrapT": 10497
    }
  ],
  "scene": 0,
  "scenes": [
    {
      "name": "Sketchfab_Scene",
      "nodes": [
        0
      ]
    }
  ],
  "textures": [
    {
      "sampler": 0,
      "source": 0
    }
  ]
}
